<svg width="1056" height="109" viewBox="0 0 1056 109" fill="none" xmlns="http://www.w3.org/2000/svg">
<g filter="url(#filter0_d_271_6)">
<path d="M130.226 22.8257V54.2682C130.226 55.199 129.428 55.9972 128.63 55.9972C127.699 55.9972 126.901 55.199 126.901 54.2682V22.8257C126.901 2.61138 87.5367 2.47892 87.5367 22.9587V82.1383C87.5367 104.348 47.108 104.481 47.108 82.4044L46.975 23.0918C46.975 2.74442 7.47762 2.61138 7.47762 22.8257V48.159C7.47762 49.0897 6.67993 49.8879 5.74863 49.8879C4.81792 49.8879 4.15271 49.0897 4.15271 48.159V22.8257C4.15271 -1.77668 50.2999 -1.64365 50.2999 23.0918L50.4329 82.4044C50.4329 100.225 84.2118 99.959 84.2118 82.1383V22.9587C84.2118 -1.7767 130.226 -1.77668 130.226 22.8257Z" fill="#2185C5"/>
<path d="M67.1854 100.771C61.519 100.771 56.2178 99.1798 52.2582 96.2908C47.6506 92.9287 45.2156 88.1271 45.2156 82.4046L45.0826 23.0961C45.0826 13.8495 35.751 9.63986 27.0804 9.63986C18.5508 9.63986 9.3701 13.7664 9.3701 22.8257V48.1588C9.3701 50.1219 7.71185 51.7802 5.7487 51.7802C3.79233 51.7802 2.26038 50.1897 2.26038 48.1588V22.8257C2.26038 13.0672 10.0292 2.56464 27.0865 2.56464C39.5627 2.56464 52.1923 9.61523 52.1923 23.0918L52.3254 82.4003C52.3254 90.1962 60.0012 93.7455 67.1331 93.7455C74.4473 93.7455 82.3196 90.1131 82.3196 82.1385V22.9587C82.3196 16.5845 85.0854 11.2359 90.3176 7.4913C94.8174 4.27154 100.836 2.49811 107.265 2.49811C124.34 2.49811 132.118 13.0352 132.118 22.8257V54.2682C132.118 56.1974 130.488 57.8895 128.63 57.8895C126.667 57.8895 125.009 56.2313 125.009 54.2682V22.8257C125.009 13.6869 115.787 9.52405 107.219 9.52405C102.509 9.52405 97.9688 10.7955 94.7632 13.0118C92.33 14.6947 89.4287 17.7863 89.4287 22.9587V82.1385C89.4287 94.3708 78.2387 100.771 67.1854 100.771Z" fill="#2185C5"/>
</g>
<g filter="url(#filter1_d_271_6)">
<path d="M288.028 22.8257V60.3775C288.028 61.3082 287.23 62.1065 286.431 62.1065C285.501 62.1065 284.704 61.3082 284.704 60.3775V22.8257C284.704 2.61138 245.339 2.47892 245.339 22.9587V82.1383C245.339 104.348 204.911 104.481 204.911 82.4044L204.777 23.0918C204.777 2.74442 165.28 2.61138 165.28 22.8257V56.7119C165.28 57.6427 164.482 58.4409 163.551 58.4409C162.62 58.4409 161.955 57.6427 161.955 56.7119V22.8257C161.955 -1.77668 208.101 -1.64365 208.101 23.0918L208.235 82.4044C208.235 100.225 242.014 99.959 242.014 82.1383V22.9587C242.014 -1.7767 288.028 -1.77668 288.028 22.8257Z" fill="#7ECEFD"/>
<path d="M224.988 100.771C219.321 100.771 214.02 99.1798 210.061 96.2908C205.454 92.9287 203.019 88.1271 203.019 82.4046L202.885 23.0961C202.885 13.8495 193.553 9.63986 184.883 9.63986C176.353 9.63986 167.172 13.7664 167.172 22.8257V56.7118C167.172 58.6749 165.514 60.3332 163.551 60.3332C161.595 60.3332 160.063 58.7427 160.063 56.7118V22.8257C160.063 13.0672 167.832 2.56464 184.888 2.56464C197.364 2.56464 209.993 9.61523 209.993 23.0918L210.127 82.4003C210.127 90.1962 217.803 93.7455 224.935 93.7455C232.249 93.7455 240.121 90.1131 240.121 82.1385V22.9587C240.121 16.5845 242.887 11.2359 248.119 7.4913C252.62 4.27154 258.638 2.49811 265.068 2.49811C282.143 2.49811 289.92 13.0352 289.92 22.8257V60.3775C289.92 62.3068 288.29 63.9989 286.431 63.9989C284.469 63.9989 282.812 62.3407 282.812 60.3775V22.8257C282.812 13.6869 273.59 9.52405 265.022 9.52405C260.311 9.52405 255.771 10.7955 252.566 13.0118C250.132 14.6947 247.231 17.7863 247.231 22.9587V82.1385C247.231 94.3708 236.041 100.771 224.988 100.771Z" fill="#7ECEFD"/>
</g>
<g filter="url(#filter2_d_271_6)">
<path d="M164.673 65.3743C163.795 65.3743 163.083 66.0862 163.083 66.9645V84.5891C163.083 101.639 130.766 101.893 130.766 84.8436L130.707 66.9609C130.705 66.0841 129.993 65.3743 129.117 65.3743C128.237 65.3743 127.524 66.0884 127.526 66.9681L127.585 84.8436C127.585 105.965 166.265 105.838 166.265 84.5891V66.9645C166.265 66.0862 165.553 65.3743 164.674 65.3743H164.673Z" fill="white"/>
<path d="M146.794 102.498C141.355 102.498 136.266 100.97 132.464 98.1954C128.034 94.9627 125.693 90.3459 125.693 84.8439L125.634 66.9741C125.632 66.0403 125.993 65.1644 126.652 64.5046C127.31 63.8455 128.185 63.4821 129.117 63.4821C131.033 63.4821 132.595 65.0412 132.599 66.9575L132.658 84.8378C132.658 92.2426 139.959 95.612 146.743 95.612C153.701 95.612 161.191 92.1625 161.191 84.5889V66.9643C161.191 65.0442 162.753 63.4821 164.673 63.4821C166.594 63.4821 168.157 65.0442 168.157 66.9643V84.5889C168.157 96.3462 157.41 102.498 146.794 102.498Z" fill="white"/>
</g>
<g filter="url(#filter3_d_271_6)">
<path d="M394.553 42.3532L381.034 60.3787H379.492L366.268 42.2941V72.4759H358.441V30.968H367.455L380.44 48.8162L393.427 30.968H402.381V72.4759H394.553V42.3532Z" fill="#2185C5"/>
<path d="M463.919 30.968V54.7459C463.919 67.0204 456.389 73.3062 445.952 73.3062C435.99 73.3062 427.511 67.2583 427.511 54.7459V30.968H435.279V54.7459C435.279 62.2179 439.548 66.1902 446.012 66.1902C452.475 66.1902 456.152 61.8618 456.152 54.7459V30.968H463.919Z" fill="#2185C5"/>
<path d="M514.964 40.9291C513.542 38.5581 509.628 36.3039 505.121 36.3039C499.31 36.3039 496.523 38.7354 496.523 41.8185C496.523 45.4362 500.792 46.4437 505.774 47.0376C514.564 48.1206 522.743 50.4281 522.49 60.7231C522.329 67.2445 517.088 72.4744 510.602 73.1664C499.449 74.3563 490.702 72.4557 486.976 63.2845L493.498 59.9045C495.337 64.4707 500.14 66.4871 505.181 66.4871C510.102 66.4871 514.727 64.7676 514.727 60.2605C514.727 56.3472 510.636 54.7459 505.121 54.1535C496.641 53.1446 488.814 50.8918 488.814 41.5821C488.814 33.0436 497.234 29.544 504.884 29.4849C511.347 29.4849 518.048 31.324 521.191 37.728L514.964 40.9291Z" fill="#2185C5"/>
<path d="M546.382 72.4168V30.9089H554.15V72.4168H546.382Z" fill="#2185C5"/>
<path d="M615.873 67.1991C611.603 71.4093 606.089 73.3652 600.1 73.3652C584.682 73.3652 578.159 62.7512 578.1 51.9583C578.041 41.1079 585.097 30.0787 600.1 30.0787C605.733 30.0787 611.07 32.2133 615.339 36.4236L610.121 41.4639C607.393 38.7945 603.717 37.5492 600.1 37.5492C590.078 37.5492 585.749 45.0212 585.809 51.9583C585.868 58.8379 589.841 66.0129 600.1 66.0129C603.717 66.0129 607.808 64.5298 610.536 61.8027L615.873 67.1991Z" fill="#2185C5"/>
<path d="M702.137 42.3532L688.616 60.3787H687.075L673.851 42.2941V72.4759H666.024V30.968H675.038L688.023 48.8162L701.01 30.968H709.964V72.4759H702.137V42.3532Z" fill="#7ECEFD"/>
<path d="M775.892 51.8992C775.772 62.633 769.191 73.3652 754.603 73.3652C740.017 73.3652 733.257 62.8694 733.257 51.9583C733.257 41.0488 740.253 30.0787 754.603 30.0787C768.894 30.0787 776.01 41.0488 775.892 51.8992ZM740.965 52.078C741.142 58.897 744.819 66.1902 754.603 66.1902C764.387 66.1902 768.064 58.8379 768.182 52.0189C768.302 45.0211 764.387 37.1932 754.603 37.1932C744.819 37.1932 740.786 45.0802 740.965 52.078Z" fill="#7ECEFD"/>
<path d="M826.699 30.8484H834.526V72.4168H829.664V72.4759L807.842 44.4288V72.4168H800.014V30.9089H806.359L826.699 56.6442V30.8484Z" fill="#7ECEFD"/>
<path d="M859.539 72.4168V30.9089H867.306V72.4168H859.539Z" fill="#7ECEFD"/>
<path d="M905.072 38.0234H891.908V30.9089H926.064V38.0234H912.9V72.4168H905.072V38.0234Z" fill="#7ECEFD"/>
<path d="M989.386 51.8992C989.267 62.633 982.686 73.3652 968.098 73.3652C953.511 73.3652 946.751 62.8694 946.751 51.9583C946.751 41.0488 953.748 30.0787 968.098 30.0787C982.389 30.0787 989.505 41.0488 989.386 51.8992ZM954.46 52.078C954.637 58.897 958.314 66.1902 968.098 66.1902C977.882 66.1902 981.558 58.8379 981.677 52.0189C981.796 45.0211 977.882 37.1932 968.098 37.1932C958.314 37.1932 954.281 45.0802 954.46 52.078Z" fill="#7ECEFD"/>
<path d="M1049.74 72.4168H1040.43L1028.33 58.541H1020.8V72.4168H1012.98V30.8484C1019.56 30.8484 1026.14 30.9089 1032.72 30.9089C1042.51 30.968 1047.66 37.4901 1047.66 44.6651C1047.66 50.3585 1045.06 56.1094 1037.17 57.7107L1049.74 71.8835V72.4168ZM1020.8 38.2021V51.4841H1032.72C1037.7 51.4841 1039.84 48.1633 1039.84 44.8439C1039.84 41.523 1037.64 38.2021 1032.72 38.2021H1020.8Z" fill="#7ECEFD"/>
</g>
<defs>
<filter id="filter0_d_271_6" x="0.260376" y="0.498108" width="137.858" height="106.273" filterUnits="userSpaceOnUse" color-interpolation-filters="sRGB">
<feFlood flood-opacity="0" result="BackgroundImageFix"/>
<feColorMatrix in="SourceAlpha" type="matrix" values="0 0 0 0 0 0 0 0 0 0 0 0 0 0 0 0 0 0 127 0" result="hardAlpha"/>
<feOffset dx="2" dy="2"/>
<feGaussianBlur stdDeviation="2"/>
<feColorMatrix type="matrix" values="0 0 0 0 0 0 0 0 0 0 0 0 0 0 0 0 0 0 0.75 0"/>
<feBlend mode="normal" in2="BackgroundImageFix" result="effect1_dropShadow_271_6"/>
<feBlend mode="normal" in="SourceGraphic" in2="effect1_dropShadow_271_6" result="shape"/>
</filter>
<filter id="filter1_d_271_6" x="158.063" y="0.498108" width="137.858" height="106.273" filterUnits="userSpaceOnUse" color-interpolation-filters="sRGB">
<feFlood flood-opacity="0" result="BackgroundImageFix"/>
<feColorMatrix in="SourceAlpha" type="matrix" values="0 0 0 0 0 0 0 0 0 0 0 0 0 0 0 0 0 0 127 0" result="hardAlpha"/>
<feOffset dx="2" dy="2"/>
<feGaussianBlur stdDeviation="2"/>
<feColorMatrix type="matrix" values="0 0 0 0 0 0 0 0 0 0 0 0 0 0 0 0 0 0 0.75 0"/>
<feBlend mode="normal" in2="BackgroundImageFix" result="effect1_dropShadow_271_6"/>
<feBlend mode="normal" in="SourceGraphic" in2="effect1_dropShadow_271_6" result="shape"/>
</filter>
<filter id="filter2_d_271_6" x="123.634" y="61.4821" width="50.5228" height="47.016" filterUnits="userSpaceOnUse" color-interpolation-filters="sRGB">
<feFlood flood-opacity="0" result="BackgroundImageFix"/>
<feColorMatrix in="SourceAlpha" type="matrix" values="0 0 0 0 0 0 0 0 0 0 0 0 0 0 0 0 0 0 127 0" result="hardAlpha"/>
<feOffset dx="2" dy="2"/>
<feGaussianBlur stdDeviation="2"/>
<feColorMatrix type="matrix" values="0 0 0 0 0 0 0 0 0 0 0 0 0 0 0 0 0 0 0.75 0"/>
<feBlend mode="normal" in2="BackgroundImageFix" result="effect1_dropShadow_271_6"/>
<feBlend mode="normal" in="SourceGraphic" in2="effect1_dropShadow_271_6" result="shape"/>
</filter>
<filter id="filter3_d_271_6" x="356.441" y="27.4849" width="699.299" height="52" filterUnits="userSpaceOnUse" color-interpolation-filters="sRGB">
<feFlood flood-opacity="0" result="BackgroundImageFix"/>
<feColorMatrix in="SourceAlpha" type="matrix" values="0 0 0 0 0 0 0 0 0 0 0 0 0 0 0 0 0 0 127 0" result="hardAlpha"/>
<feOffset dx="2" dy="2"/>
<feGaussianBlur stdDeviation="2"/>
<feColorMatrix type="matrix" values="0 0 0 0 0 0 0 0 0 0 0 0 0 0 0 0 0 0 0.75 0"/>
<feBlend mode="normal" in2="BackgroundImageFix" result="effect1_dropShadow_271_6"/>
<feBlend mode="normal" in="SourceGraphic" in2="effect1_dropShadow_271_6" result="shape"/>
</filter>
</defs>
</svg>